<svg width="30" height="24" viewBox="0 0 30 24" xmlns="http://www.w3.org/2000/svg">
    <path d="M0.466484 13.3931C0.758116 13.4096 1.04793 13.4169 1.32489 13.4169C4.03211 13.4169 6.07351 12.6282 7.39044 11.0729C7.58119 10.8473 7.75178 10.6125 7.90035 10.374C7.69676 10.0384 7.53351 9.67888 7.41612 9.29737C7.22354 9.70639 6.98141 10.1044 6.66777 10.4712C5.53793 11.8028 3.74047 12.4778 1.32489 12.4778C1.20016 12.4778 1.07358 12.476 0.945193 12.4723C0.879163 10.1228 1.42025 8.32161 2.55743 7.12024C4.00825 5.58321 6.15237 5.3521 7.30056 5.3521C7.54083 5.3521 7.74812 5.36311 7.91687 5.37411C8.01774 5.21087 8.12779 5.05496 8.24701 4.90456C8.14797 4.75232 8.05073 4.59459 7.96086 4.43502C7.77561 4.42218 7.55367 4.41301 7.30056 4.41301C6.00197 4.41301 3.56807 4.6808 1.87331 6.47461C0.486681 7.94377 -0.135113 10.1228 0.0244587 12.9492C0.0391319 13.1876 0.229877 13.3784 0.466484 13.3931Z M22.027 5.37227C22.1903 5.36126 22.3847 5.3521 22.6048 5.3521C23.753 5.3521 25.899 5.58321 27.3498 7.12024C28.487 8.32161 29.028 10.1228 28.9602 12.4723C28.8318 12.476 28.7052 12.4778 28.5805 12.4778C26.1667 12.4778 24.3674 11.8028 23.2376 10.4712C22.9368 10.1172 22.7038 9.73757 22.5149 9.3469C22.3957 9.72107 22.2288 10.0751 22.027 10.4034C22.1719 10.6327 22.3333 10.8564 22.5149 11.0729C23.8337 12.6282 25.8733 13.4169 28.5805 13.4169C28.8593 13.4169 29.1472 13.4096 29.4389 13.3931C29.6755 13.3784 29.8681 13.1876 29.8809 12.9492C30.0423 10.1228 29.4205 7.94377 28.0339 6.47461C26.3391 4.6808 23.9052 4.41301 22.6048 4.41301C22.3719 4.41301 22.1646 4.42034 21.9885 4.43135C21.8968 4.59275 21.7996 4.75232 21.6969 4.90456C21.8161 5.05496 21.9262 5.20903 22.027 5.37227Z M21.6969 4.90456C21.7996 4.75232 21.8968 4.59275 21.9885 4.43135C22.6525 3.26115 23.034 1.90935 23.034 0.469538C23.034 0.210921 22.8231 0 22.5645 0C22.304 0 22.0949 0.210921 22.0949 0.469538C22.0949 1.84332 21.7006 3.12541 21.0256 4.2149C21.2714 4.42216 21.497 4.65328 21.6969 4.90456Z M8.92015 4.2149C8.24517 3.12541 7.85268 1.84332 7.85268 0.469538C7.85268 0.210921 7.64356 0 7.3831 0C7.12265 0 6.91357 0.210921 6.91357 0.469538C6.91357 1.91119 7.29506 3.26299 7.96086 4.43502C8.05073 4.59459 8.14797 4.75232 8.24701 4.90456C8.44877 4.65328 8.67253 4.42216 8.92015 4.2149Z M10.4755 18.149C10.2848 17.9711 10.2738 17.6758 10.4517 17.4851C10.481 17.4539 10.5085 17.419 10.5379 17.3842C10.4993 15.2437 10.0592 13.3454 9.67398 12.0761C9.12373 11.7698 8.63953 11.359 8.24885 10.8692C8.4341 11.3076 9.90324 14.9723 9.53825 19.0294C9.78586 18.6883 10.1032 18.3893 10.4755 18.149Z M20.2791 12.0725C19.8976 13.272 19.4299 15.1428 19.3492 17.2851C19.4024 17.353 19.4592 17.4209 19.5179 17.4851C19.6922 17.6758 19.6812 17.973 19.4904 18.149C19.4886 18.1509 19.4849 18.1527 19.4812 18.1545C19.8022 18.3636 20.0828 18.6167 20.3121 18.9029C20.048 14.7577 21.629 11.1077 21.6456 11.0655C21.6731 11.0068 21.6841 10.9463 21.6859 10.8839C21.2989 11.3645 20.822 11.7698 20.2791 12.0725Z M8.24701 4.90456C8.12779 5.05496 8.01774 5.21087 7.91687 5.37411C7.46566 6.10594 7.20337 6.96616 7.20337 7.8869C7.20337 8.37662 7.27856 8.84984 7.41612 9.29737C7.53351 9.67888 7.69676 10.0384 7.90035 10.374C8.0049 10.5464 8.12413 10.7115 8.24885 10.8692C8.63953 11.359 9.12373 11.7698 9.67398 12.0761C10.2462 12.3953 10.89 12.5989 11.5778 12.6594C11.5632 12.4173 11.5466 12.2742 11.5448 12.265C11.5136 12.0083 11.6971 11.7735 11.9557 11.7423C11.9758 11.7405 11.996 11.7423 12.0162 11.7423C12.0089 11.7405 12.0015 11.7386 11.996 11.7386C9.87022 11.7386 8.14244 10.0109 8.14244 7.8869C8.14244 5.76295 9.87022 4.03332 11.996 4.03332H17.9515C20.0755 4.03332 21.8033 5.76295 21.8033 7.8869C21.8033 10.0109 20.0755 11.7386 17.9515 11.7386C17.9442 11.7386 17.9405 11.7405 17.9332 11.7405C17.9607 11.7405 17.9864 11.7405 18.0139 11.7423C18.2707 11.7735 18.4541 12.0083 18.4229 12.265C18.4211 12.2761 18.4046 12.4209 18.3899 12.6575C19.0704 12.5952 19.7105 12.3898 20.2791 12.0725C20.822 11.7698 21.2989 11.3645 21.6859 10.8839C21.8088 10.7317 21.9225 10.5721 22.027 10.4034C22.2288 10.0751 22.3957 9.72107 22.5149 9.3469C22.6616 8.88652 22.7442 8.39497 22.7442 7.8869C22.7442 6.96432 22.4819 6.10227 22.027 5.37227C21.9262 5.20903 21.8161 5.05496 21.6969 4.90456C21.497 4.65328 21.2714 4.42216 21.0256 4.2149C20.1929 3.51608 19.1199 3.09425 17.9515 3.09425H11.996C10.8258 3.09425 9.75285 3.51608 8.92015 4.2149C8.67253 4.42216 8.44877 4.65328 8.24701 4.90456Z M17.4912 12.1513C17.5132 11.9606 17.6471 11.812 17.8213 11.7588C17.6251 11.8175 17.4802 11.9936 17.4802 12.2082C17.4802 12.2119 17.482 12.2155 17.482 12.2192C17.4875 12.1844 17.4894 12.1623 17.4912 12.1513Z M17.2325 23.0609H12.7132C11.1633 23.0609 9.90324 22.0246 9.90324 20.7517C9.90324 19.4806 11.1633 18.4462 12.7132 18.4462H17.2325C18.7824 18.4462 20.0443 19.4806 20.0443 20.7517C20.0443 22.0246 18.7824 23.0609 17.2325 23.0609ZM19.4812 18.1545C19.3932 18.2334 19.2831 18.2737 19.1731 18.2737C19.0465 18.2737 18.9181 18.2224 18.8264 18.1233C18.7017 17.9894 18.5898 17.8427 18.4853 17.6923C18.0946 17.5731 17.6727 17.5052 17.2325 17.5052H12.7132C12.284 17.5052 11.8713 17.5694 11.4861 17.685C11.3816 17.8391 11.2679 17.9858 11.1395 18.1233C11.0496 18.2224 10.9212 18.2737 10.7965 18.2737C10.6809 18.2737 10.5672 18.2334 10.4774 18.149C10.4774 18.149 10.4774 18.149 10.4755 18.149C10.1032 18.3893 9.78586 18.6883 9.53825 19.0294C9.17508 19.5302 8.96417 20.1189 8.96417 20.7517C8.96417 22.5437 10.6461 24 12.7132 24H17.2325C19.3015 24 20.9834 22.5437 20.9834 20.7517C20.9834 20.0657 20.734 19.4274 20.3121 18.9029C20.0828 18.6167 19.8022 18.3636 19.4812 18.1545Z M13.755 9.55415C13.755 9.29554 13.5459 9.08644 13.2854 9.08644C13.025 9.08644 12.8159 9.29554 12.8159 9.55415C12.8159 10.1044 12.3684 10.5519 11.8181 10.5519C11.2697 10.5519 10.824 10.1044 10.824 9.55415C10.824 9.29554 10.6131 9.08644 10.3526 9.08644C10.094 9.08644 9.88307 9.29554 9.88307 9.55415C9.88307 10.6216 10.7525 11.491 11.8181 11.491C12.8856 11.491 13.755 10.6216 13.755 9.55415Z M19.5252 9.08644C19.2648 9.08644 19.0539 9.29554 19.0539 9.55415C19.0539 10.1044 18.6082 10.5519 18.0598 10.5519C17.5095 10.5519 17.062 10.1044 17.062 9.55415C17.062 9.29554 16.851 9.08644 16.5906 9.08644C16.3338 9.08644 16.1229 9.29554 16.1229 9.55415C16.1229 10.6216 16.9905 11.491 18.0598 11.491C19.1254 11.491 19.9948 10.6216 19.9948 9.55415C19.9948 9.29554 19.7839 9.08644 19.5252 9.08644Z M10.5379 17.3842C10.5085 17.419 10.481 17.4539 10.4517 17.4851C10.2738 17.6758 10.2848 17.9711 10.4755 18.149C10.4774 18.149 10.4774 18.149 10.4774 18.149C10.5672 18.2334 10.6809 18.2737 10.7965 18.2737C10.9212 18.2737 11.0496 18.2224 11.1395 18.1233C11.2679 17.9858 11.3816 17.8391 11.4861 17.685C12.8067 15.761 12.5335 12.6759 12.4839 12.2082C12.4803 12.1807 12.4784 12.1605 12.4784 12.1513C12.4491 11.9147 12.2473 11.7441 12.0162 11.7423C11.996 11.7423 11.9758 11.7405 11.9557 11.7423C11.6971 11.7735 11.5136 12.0083 11.5448 12.265C11.5466 12.2742 11.5632 12.4173 11.5778 12.6594C11.6365 13.6077 11.6622 16.0471 10.5379 17.3842Z M17.8947 11.7441C17.8745 11.746 17.8543 11.7496 17.8323 11.7551C17.8287 11.757 17.825 11.7588 17.8213 11.7588C17.6471 11.812 17.5132 11.9606 17.4912 12.1513C17.4894 12.1623 17.4875 12.1844 17.482 12.2192C17.4288 12.7273 17.172 15.7866 18.4853 17.6923C18.5898 17.8427 18.7017 17.9894 18.8264 18.1233C18.9181 18.2224 19.0465 18.2737 19.1731 18.2737C19.2831 18.2737 19.3932 18.2334 19.4812 18.1545C19.4849 18.1527 19.4886 18.1509 19.4904 18.149C19.6812 17.973 19.6922 17.6758 19.5179 17.4851C19.4592 17.4209 19.4024 17.353 19.3492 17.2851C18.311 15.9315 18.3331 13.5838 18.3899 12.6575C18.4046 12.4209 18.4211 12.2761 18.4229 12.265C18.4541 12.0083 18.2707 11.7735 18.0139 11.7423C17.9864 11.7405 17.9607 11.7405 17.9332 11.7405C17.9204 11.7423 17.9075 11.7423 17.8947 11.7441Z M12.8397 20.0382C12.8397 19.7778 12.6288 19.5687 12.3684 19.5687C12.1097 19.5687 11.8988 19.7778 11.8988 20.0382V21.467C11.8988 21.7256 12.1097 21.9366 12.3684 21.9366C12.6288 21.9366 12.8397 21.7256 12.8397 21.467V20.0382Z M18.0451 20.0382C18.0451 19.7778 17.836 19.5687 17.5755 19.5687C17.3169 19.5687 17.1078 19.7778 17.1078 20.0382V21.467C17.1078 21.7256 17.3169 21.9366 17.5755 21.9366C17.836 21.9366 18.0451 21.7256 18.0451 21.467V20.0382Z" />
</svg>
