<svg width="24" height="24" viewBox="0 0 24 24" xmlns="http://www.w3.org/2000/svg">
<path d="M8 10.5C8 10.2239 8.22386 10 8.5 10H23.5C23.7761 10 24 10.2239 24 10.5V13.5C24 13.7761 23.7761 14 23.5 14H8.5C8.22386 14 8 13.7761 8 13.5V10.5Z M0 10.5C0 10.2239 0.223858 10 0.5 10H5.5C5.77614 10 6 10.2239 6 10.5V13.5C6 13.7761 5.77614 14 5.5 14H0.5C0.223858 14 0 13.7761 0 13.5V10.5Z M8 0.5C8 0.223858 8.22386 0 8.5 0H23.5C23.7761 0 24 0.223858 24 0.5V7.5C24 7.77614 23.7761 8 23.5 8H8.5C8.22386 8 8 7.77614 8 7.5V0.5Z M8 16.5C8 16.2239 8.22386 16 8.5 16H23.5C23.7761 16 24 16.2239 24 16.5V23.5C24 23.7761 23.7761 24 23.5 24H8.5C8.22386 24 8 23.7761 8 23.5V16.5Z M0 16.5C0 16.2239 0.223858 16 0.5 16H5.5C5.77614 16 6 16.2239 6 16.5V23.5C6 23.7761 5.77614 24 5.5 24H0.5C0.223858 24 0 23.7761 0 23.5V16.5Z M0 0.5C0 0.223858 0.223858 0 0.5 0H5.5C5.77614 0 6 0.223858 6 0.5V7.5C6 7.77614 5.77614 8 5.5 8H0.5C0.223858 8 0 7.77614 0 7.5V0.5Z"/>
</svg>


